<svg width="828" height="751" viewBox="0 0 828 751" fill="none" xmlns="http://www.w3.org/2000/svg">
<g clip-path="url(#clip0)">
<path d="M400.595 663.988C222.379 647.785 9.84719 482.811 20.6675 312.944C31.4878 143.076 237.327 -15.0565 415.543 1.14629C593.76 17.349 696.347 334.803 685.527 504.67C674.707 674.538 578.812 680.19 400.595 663.988Z" fill="url(#paint0_linear)"/>
<path d="M415.542 691.271C621.003 691.271 787.563 679.08 787.563 664.042C787.563 649.004 621.003 636.813 415.542 636.813C210.08 636.813 43.5203 649.004 43.5203 664.042C43.5203 679.08 210.08 691.271 415.542 691.271Z" fill="#3F3D56"/>
<path opacity="0.1" d="M415.542 681.609C590.549 681.609 732.421 673.548 732.421 663.603C732.421 653.658 590.549 645.596 415.542 645.596C240.534 645.596 98.6618 653.658 98.6618 663.603C98.6618 673.548 240.534 681.609 415.542 681.609Z" fill="black"/>
<path d="M156.009 751C242.17 751 312.018 743.725 312.018 734.75C312.018 725.776 242.17 718.5 156.009 718.5C69.8476 718.5 0 725.776 0 734.75C0 743.725 69.8476 751 156.009 751Z" fill="#3F3D56"/>
<path opacity="0.1" d="M156.009 745.234C229.399 745.234 288.894 740.423 288.894 734.488C288.894 728.553 229.399 723.742 156.009 723.742C82.6185 723.742 23.1239 728.553 23.1239 734.488C23.1239 740.423 82.6185 745.234 156.009 745.234Z" fill="black"/>
<path d="M697.131 142.295H144.245V660.529H697.131V142.295Z" fill="#3F3D56"/>
<path d="M414.398 213.116H278.002C277.784 213.117 277.568 213.066 277.367 212.967C277.166 212.868 276.983 212.722 276.829 212.539C276.675 212.355 276.553 212.137 276.469 211.896C276.386 211.656 276.343 211.399 276.343 211.139C276.343 210.879 276.386 210.621 276.469 210.381C276.553 210.141 276.675 209.923 276.829 209.739C276.983 209.555 277.166 209.41 277.367 209.31C277.568 209.211 277.784 209.161 278.002 209.161H414.398C414.836 209.162 415.257 209.371 415.566 209.742C415.876 210.113 416.05 210.615 416.05 211.139C416.05 211.662 415.876 212.165 415.566 212.536C415.257 212.906 414.836 213.115 414.398 213.116V213.116Z" fill="#F2F2F2"/>
<path d="M563.706 234.87H349.179C348.74 234.87 348.319 234.661 348.009 234.29C347.698 233.92 347.524 233.417 347.524 232.892C347.524 232.368 347.698 231.865 348.009 231.494C348.319 231.123 348.74 230.915 349.179 230.915H563.706C563.923 230.915 564.138 230.966 564.339 231.065C564.54 231.164 564.722 231.31 564.876 231.494C565.03 231.677 565.152 231.895 565.235 232.135C565.318 232.375 565.361 232.632 565.361 232.892C565.361 233.152 565.318 233.409 565.235 233.649C565.152 233.889 565.03 234.107 564.876 234.29C564.722 234.474 564.54 234.62 564.339 234.719C564.138 234.819 563.923 234.87 563.706 234.87V234.87Z" fill="#F2F2F2"/>
<path d="M415.06 256.623H278.664C278.225 256.623 277.804 256.414 277.493 256.044C277.183 255.673 277.008 255.17 277.008 254.645C277.008 254.121 277.183 253.618 277.493 253.247C277.804 252.876 278.225 252.668 278.664 252.668H415.06C415.499 252.668 415.92 252.876 416.231 253.247C416.541 253.618 416.715 254.121 416.715 254.645C416.715 255.17 416.541 255.673 416.231 256.044C415.92 256.414 415.499 256.623 415.06 256.623V256.623Z" fill="#F2F2F2"/>
<path d="M563.706 257.018H427.309C426.87 257.018 426.449 256.81 426.139 256.439C425.828 256.068 425.654 255.565 425.654 255.041C425.654 254.516 425.828 254.013 426.139 253.642C426.449 253.272 426.87 253.063 427.309 253.063H563.706C564.145 253.063 564.566 253.272 564.876 253.642C565.186 254.013 565.361 254.516 565.361 255.041C565.361 255.565 565.186 256.068 564.876 256.439C564.566 256.81 564.145 257.018 563.706 257.018V257.018Z" fill="#F2F2F2"/>
<path d="M415.391 278.376H278.995C278.556 278.376 278.135 278.168 277.824 277.797C277.514 277.426 277.34 276.923 277.34 276.399C277.34 275.874 277.514 275.371 277.824 275C278.135 274.629 278.556 274.421 278.995 274.421H415.391C415.83 274.421 416.251 274.629 416.562 275C416.872 275.371 417.046 275.874 417.046 276.399C417.046 276.923 416.872 277.426 416.562 277.797C416.251 278.168 415.83 278.376 415.391 278.376V278.376Z" fill="#F2F2F2"/>
<path d="M415.722 300.129H279.326C278.887 300.129 278.466 299.921 278.155 299.55C277.845 299.179 277.671 298.676 277.671 298.152C277.671 297.627 277.845 297.124 278.155 296.754C278.466 296.383 278.887 296.174 279.326 296.174H415.722C416.161 296.174 416.582 296.383 416.893 296.754C417.203 297.124 417.377 297.627 417.377 298.152C417.377 298.676 417.203 299.179 416.893 299.55C416.582 299.921 416.161 300.129 415.722 300.129V300.129Z" fill="#F2F2F2"/>
<path d="M477.63 213.512H438.565C438.126 213.512 437.705 213.303 437.395 212.933C437.084 212.562 436.91 212.059 436.91 211.534C436.91 211.01 437.084 210.507 437.395 210.136C437.705 209.765 438.126 209.557 438.565 209.557H477.63C478.069 209.557 478.49 209.765 478.801 210.136C479.111 210.507 479.286 211.01 479.286 211.534C479.286 212.059 479.111 212.562 478.801 212.933C478.49 213.303 478.069 213.512 477.63 213.512V213.512Z" fill="#F2F2F2"/>
<path d="M477.63 278.376H438.565C438.126 278.376 437.705 278.168 437.395 277.797C437.084 277.426 436.91 276.923 436.91 276.399C436.91 275.874 437.084 275.371 437.395 275C437.705 274.629 438.126 274.421 438.565 274.421H477.63C478.069 274.421 478.49 274.629 478.801 275C479.111 275.371 479.286 275.874 479.286 276.399C479.286 276.923 479.111 277.426 478.801 277.797C478.49 278.168 478.069 278.376 477.63 278.376V278.376Z" fill="#F2F2F2"/>
<path d="M477.63 299.734H438.565C438.348 299.734 438.132 299.684 437.931 299.585C437.73 299.485 437.547 299.34 437.393 299.156C437.238 298.972 437.116 298.754 437.033 298.514C436.949 298.274 436.906 298.016 436.906 297.756C436.906 297.496 436.949 297.239 437.033 296.999C437.116 296.758 437.238 296.54 437.393 296.357C437.547 296.173 437.73 296.027 437.931 295.928C438.132 295.829 438.348 295.778 438.565 295.779H477.63C477.848 295.778 478.064 295.829 478.265 295.928C478.466 296.027 478.649 296.173 478.803 296.357C478.957 296.54 479.079 296.758 479.163 296.999C479.246 297.239 479.289 297.496 479.289 297.756C479.289 298.016 479.246 298.274 479.163 298.514C479.079 298.754 478.957 298.972 478.803 299.156C478.649 299.34 478.466 299.485 478.265 299.585C478.064 299.684 477.848 299.734 477.63 299.734V299.734Z" fill="#F2F2F2"/>
<path d="M543.18 299.734H504.115C503.676 299.733 503.256 299.524 502.947 299.153C502.637 298.782 502.463 298.28 502.463 297.756C502.463 297.233 502.637 296.73 502.947 296.359C503.256 295.989 503.676 295.78 504.115 295.779H543.18C543.398 295.778 543.613 295.829 543.814 295.928C544.016 296.027 544.199 296.173 544.353 296.357C544.507 296.54 544.629 296.758 544.712 296.999C544.796 297.239 544.839 297.496 544.839 297.756C544.839 298.016 544.796 298.274 544.712 298.514C544.629 298.754 544.507 298.972 544.353 299.156C544.199 299.34 544.016 299.485 543.814 299.585C543.613 299.684 543.398 299.734 543.18 299.734V299.734Z" fill="#F2F2F2"/>
<path d="M316.736 234.87H277.671C277.232 234.87 276.811 234.661 276.5 234.29C276.19 233.92 276.015 233.417 276.015 232.892C276.015 232.368 276.19 231.865 276.5 231.494C276.811 231.123 277.232 230.915 277.671 230.915H316.736C317.175 230.915 317.596 231.123 317.906 231.494C318.216 231.865 318.391 232.368 318.391 232.892C318.391 233.417 318.216 233.92 317.906 234.29C317.596 234.661 317.175 234.87 316.736 234.87V234.87Z" fill="#F2F2F2"/>
<path d="M414.563 533.483H278.167C277.728 533.483 277.307 533.275 276.997 532.904C276.686 532.533 276.512 532.03 276.512 531.505C276.512 530.981 276.686 530.478 276.997 530.107C277.307 529.736 277.728 529.528 278.167 529.528H414.563C415.003 529.528 415.424 529.736 415.734 530.107C416.044 530.478 416.219 530.981 416.219 531.505C416.219 532.03 416.044 532.533 415.734 532.904C415.424 533.275 415.003 533.483 414.563 533.483Z" fill="#F2F2F2"/>
<path d="M413.901 576.989H277.505C277.066 576.989 276.645 576.781 276.335 576.41C276.024 576.039 275.85 575.536 275.85 575.012C275.85 574.487 276.024 573.984 276.335 573.613C276.645 573.243 277.066 573.034 277.505 573.034H413.901C414.34 573.034 414.761 573.243 415.072 573.613C415.382 573.984 415.557 574.487 415.557 575.012C415.557 575.536 415.382 576.039 415.072 576.41C414.761 576.781 414.34 576.989 413.901 576.989Z" fill="#F2F2F2"/>
<path d="M414.232 598.742H277.836C277.618 598.743 277.403 598.692 277.202 598.593C277 598.494 276.818 598.348 276.663 598.165C276.509 597.981 276.387 597.763 276.304 597.523C276.22 597.282 276.177 597.025 276.177 596.765C276.177 596.505 276.22 596.247 276.304 596.007C276.387 595.767 276.509 595.549 276.663 595.365C276.818 595.181 277 595.036 277.202 594.937C277.403 594.838 277.618 594.787 277.836 594.787H414.232C414.45 594.787 414.666 594.838 414.867 594.937C415.068 595.036 415.251 595.181 415.405 595.365C415.559 595.549 415.681 595.767 415.765 596.007C415.848 596.247 415.891 596.505 415.891 596.765C415.891 597.025 415.848 597.282 415.765 597.523C415.681 597.763 415.559 597.981 415.405 598.165C415.251 598.348 415.068 598.494 414.867 598.593C414.666 598.692 414.45 598.743 414.232 598.742V598.742Z" fill="#F2F2F2"/>
<path d="M472.499 577.385H433.434C432.995 577.385 432.574 577.176 432.263 576.806C431.953 576.435 431.779 575.932 431.779 575.407C431.779 574.883 431.953 574.38 432.263 574.009C432.574 573.638 432.995 573.43 433.434 573.43H472.499C472.938 573.43 473.359 573.638 473.669 574.009C473.98 574.38 474.154 574.883 474.154 575.407C474.154 575.932 473.98 576.435 473.669 576.806C473.359 577.176 472.938 577.385 472.499 577.385Z" fill="#F2F2F2"/>
<path d="M472.499 598.743H433.434C432.995 598.743 432.574 598.534 432.263 598.163C431.953 597.793 431.779 597.29 431.779 596.765C431.779 596.241 431.953 595.737 432.263 595.367C432.574 594.996 432.995 594.787 433.434 594.787H472.499C472.938 594.787 473.359 594.996 473.669 595.367C473.98 595.737 474.154 596.241 474.154 596.765C474.154 597.29 473.98 597.793 473.669 598.163C473.359 598.534 472.938 598.743 472.499 598.743V598.743Z" fill="#F2F2F2"/>
<path d="M538.049 577.385H498.984C498.545 577.385 498.124 577.176 497.813 576.806C497.503 576.435 497.328 575.932 497.328 575.407C497.328 574.883 497.503 574.38 497.813 574.009C498.124 573.638 498.545 573.43 498.984 573.43H538.049C538.488 573.43 538.909 573.638 539.219 574.009C539.529 574.38 539.704 574.883 539.704 575.407C539.704 575.932 539.529 576.435 539.219 576.806C538.909 577.176 538.488 577.385 538.049 577.385V577.385Z" fill="#F2F2F2"/>
<path d="M563.871 555.236H349.345C348.906 555.236 348.485 555.027 348.174 554.657C347.864 554.286 347.69 553.783 347.69 553.258C347.69 552.734 347.864 552.231 348.174 551.86C348.485 551.489 348.906 551.281 349.345 551.281H563.871C564.31 551.281 564.731 551.489 565.042 551.86C565.352 552.231 565.526 552.734 565.526 553.258C565.526 553.783 565.352 554.286 565.042 554.657C564.731 555.027 564.31 555.236 563.871 555.236V555.236Z" fill="#F2F2F2"/>
<path d="M316.901 555.236H277.836C277.397 555.236 276.976 555.027 276.666 554.657C276.355 554.286 276.181 553.783 276.181 553.258C276.181 552.734 276.355 552.231 276.666 551.86C276.976 551.489 277.397 551.281 277.836 551.281H316.901C317.34 551.281 317.761 551.489 318.072 551.86C318.382 552.231 318.556 552.734 318.556 553.258C318.556 553.783 318.382 554.286 318.072 554.657C317.761 555.027 317.34 555.236 316.901 555.236V555.236Z" fill="#F2F2F2"/>
<path d="M563.871 620.891H349.345C349.127 620.892 348.912 620.841 348.71 620.742C348.509 620.643 348.326 620.497 348.172 620.314C348.018 620.13 347.896 619.912 347.812 619.672C347.729 619.431 347.686 619.174 347.686 618.914C347.686 618.654 347.729 618.396 347.812 618.156C347.896 617.916 348.018 617.698 348.172 617.514C348.326 617.33 348.509 617.185 348.71 617.086C348.912 616.987 349.127 616.936 349.345 616.936H563.871C564.31 616.936 564.731 617.145 565.042 617.515C565.352 617.886 565.526 618.389 565.526 618.914C565.526 619.438 565.352 619.941 565.042 620.312C564.731 620.683 564.31 620.891 563.871 620.891V620.891Z" fill="#F2F2F2"/>
<path d="M316.901 620.891H277.836C277.618 620.892 277.403 620.841 277.202 620.742C277 620.643 276.818 620.497 276.663 620.314C276.509 620.13 276.387 619.912 276.304 619.672C276.22 619.431 276.177 619.174 276.177 618.914C276.177 618.654 276.22 618.396 276.304 618.156C276.387 617.916 276.509 617.698 276.663 617.514C276.818 617.33 277 617.185 277.202 617.086C277.403 616.987 277.618 616.936 277.836 616.936H316.901C317.119 616.936 317.334 616.987 317.536 617.086C317.737 617.185 317.92 617.33 318.074 617.514C318.228 617.698 318.35 617.916 318.434 618.156C318.517 618.396 318.56 618.654 318.56 618.914C318.56 619.174 318.517 619.431 318.434 619.672C318.35 619.912 318.228 620.13 318.074 620.314C317.92 620.497 317.737 620.643 317.536 620.742C317.334 620.841 317.119 620.892 316.901 620.891Z" fill="#F2F2F2"/>
<path d="M381.623 352.338L328.654 414.829L381.623 477.32L393.541 463.082L353.483 415.224L393.872 366.971L381.623 352.338Z" fill="#FFC107"/>
<path d="M459.753 352.338L512.723 414.829L459.753 477.32L447.835 463.082L487.893 415.224L447.504 366.971L459.753 352.338Z" fill="#FFC107"/>
<path d="M158.95 163.375C162.604 163.375 165.567 159.836 165.567 155.47C165.567 151.104 162.604 147.565 158.95 147.565C155.295 147.565 152.333 151.104 152.333 155.47C152.333 159.836 155.295 163.375 158.95 163.375Z" fill="#FFC107"/>
<path d="M176.595 163.375C180.25 163.375 183.212 159.836 183.212 155.47C183.212 151.104 180.25 147.565 176.595 147.565C172.941 147.565 169.978 151.104 169.978 155.47C169.978 159.836 172.941 163.375 176.595 163.375Z" fill="#FFC107"/>
<path d="M194.24 163.375C197.895 163.375 200.857 159.836 200.857 155.47C200.857 151.104 197.895 147.565 194.24 147.565C190.586 147.565 187.623 151.104 187.623 155.47C187.623 159.836 190.586 163.375 194.24 163.375Z" fill="#FFC107"/>
<path opacity="0.1" d="M697.131 168.646H144.245V171.281H697.131V168.646Z" fill="black"/>
<path d="M828 533.564C828 589.579 800.127 609.137 765.744 609.137C731.361 609.137 703.489 589.579 703.489 533.564C703.489 477.55 765.744 406.292 765.744 406.292C765.744 406.292 828 477.55 828 533.564Z" fill="url(#paint1_linear)"/>
<path d="M763.477 600.568L764.114 553.689L790.649 495.694L764.214 546.335L764.501 525.257L782.788 483.298L764.577 519.679L765.092 481.768L784.675 448.363L765.173 475.807L765.495 406.292L763.471 498.317L763.637 494.521L743.727 458.112L763.318 501.809L761.463 544.148L761.408 543.024L738.455 504.709L761.338 546.994L761.106 552.289L761.064 552.369L761.084 552.804L756.377 660.224H762.665L763.419 604.74L786.247 562.557L763.477 600.568Z" fill="#3F3D56"/>
<path d="M90.1538 659.731C88.2438 661.001 86.2288 662.032 84.1412 662.807C80.4071 664.026 76.4161 663.579 72.6444 664.619C71.1002 665.045 69.4195 665.936 68.9285 667.736C68.5682 669.056 68.9601 670.482 69.3354 671.797C73.503 686.395 76.015 701.895 82.6614 715.118C85.4546 720.672 88.9215 725.7 92.9491 730.039C94.46 731.666 96.1723 733.258 98.1952 733.513C99.1274 733.631 100.069 733.453 100.925 732.996C101.781 732.54 102.522 731.822 103.071 730.915C103.621 730.008 103.961 728.944 104.056 727.83C104.151 726.715 103.999 725.591 103.614 724.57C103.018 722.988 101.91 721.762 101.196 720.252C100.421 718.328 99.967 716.243 99.8583 714.112C99.2016 707.868 98.5691 701.342 100.38 695.433C101.594 691.47 103.822 688.091 105.678 684.5C107.534 680.908 109.076 676.795 108.663 672.603C108.381 669.743 107.213 667.125 105.98 664.65C104.743 662.171 102.3 655.508 99.8164 654.681C97.2382 653.822 92.4023 658.354 90.1538 659.731Z" fill="#2F2E41"/>
<path d="M158.114 710.156C158.153 711.569 157.988 712.979 157.626 714.324C156.849 716.777 154.92 718.458 153.923 720.795C152.538 724.046 153.166 727.975 154.084 731.454C154.66 733.635 155.415 735.904 156.96 737.253C158.282 738.232 159.786 738.807 161.338 738.928C174.598 741.121 188.069 739.863 201.45 740.322C203.889 740.406 206.472 740.508 208.601 739.084C210.73 737.66 212.046 734.08 210.598 731.734C209.298 729.627 206.727 729.647 204.538 729.523C198.839 729.177 193.412 726.506 189.162 721.956C188.324 721.1 187.598 720.101 187.006 718.99C186.551 718.004 186.173 716.97 185.878 715.9C184.002 709.83 181.77 703.925 179.199 698.229C178.48 696.635 177.665 694.975 176.327 694.121C175.348 693.59 174.286 693.313 173.211 693.308C169.875 693.05 161.239 691.694 158.66 694.793C156.277 697.655 158.167 706.52 158.114 710.156Z" fill="#2F2E41"/>
<path d="M178.637 356.348C190.402 356.348 199.94 344.953 199.94 330.897C199.94 316.841 190.402 305.447 178.637 305.447C166.872 305.447 157.334 316.841 157.334 330.897C157.334 344.953 166.872 356.348 178.637 356.348Z" fill="#FBBEBE"/>
<path d="M159.4 351.912C158.133 355.965 155.984 359.771 152.856 361.952L182.32 369.132C181.251 363.995 181.11 358.644 181.907 353.437C182.199 352.176 182.259 350.855 182.083 349.564C181.529 347.01 179.123 345.781 176.97 345.195C171.592 343.73 166.837 342.945 161.84 340.107C160.312 343.231 160.526 348.31 159.4 351.912Z" fill="#FBBEBE"/>
<path d="M152.61 352.423C155.78 350.709 159.233 349.875 162.711 349.984C166.189 350.093 169.601 351.141 172.691 353.05C176.469 355.428 179.596 359.017 182.669 362.559C185.502 365.824 188.523 369.562 188.724 374.258C188.822 376.533 188.228 378.757 187.927 381.007C187.388 385.659 188.074 390.397 189.889 394.562C191.704 398.728 194.559 402.116 198.059 404.257C200.399 408.915 200.882 414.559 200.918 419.992C201.054 440.577 195.618 461.416 199.499 481.473C200.41 486.182 201.824 490.743 202.611 495.484C203.63 501.625 203.58 507.939 204.114 514.167C204.692 520.911 205.954 527.546 207.873 533.926C206.591 536.362 203.922 537.296 201.519 537.099C199.116 536.902 196.868 535.656 194.724 534.345C184.34 527.997 174.83 519.626 164.075 514.231C156.96 510.661 149.38 508.438 142.477 504.316C135.575 500.193 129.155 493.651 127.045 484.783C126.132 480.948 126.076 476.908 126.026 472.922C125.816 456.133 125.621 439.161 128.68 422.773C131.378 408.321 136.577 394.495 137.712 379.75C138.081 374.95 138.089 369.812 140.334 365.807C143.506 360.147 150.356 358.681 152.61 352.423Z" fill="#2F2E41"/>
<path d="M166.521 331.256C167.776 329.3 170.197 329.034 172.203 329.612C174.208 330.191 176.057 331.426 178.083 331.895C178.543 332.051 179.026 332.09 179.5 332.011C179.973 331.931 180.428 331.735 180.835 331.433C181.543 330.6 181.966 329.482 182.022 328.297C182.732 323.254 182.898 318.124 182.516 313.031C182.41 312.316 182.45 311.582 182.632 310.89C183.134 309.446 184.664 309.103 185.913 308.639C187.974 307.807 189.745 306.178 190.945 304.009C192.145 301.841 192.706 299.257 192.54 296.665C192.508 295.421 192.071 294.242 191.321 293.379C190.457 292.538 189.248 292.486 188.134 292.476C182.407 292.421 176.681 292.422 170.954 292.481C168.834 292.502 166.609 292.564 164.771 293.827C163.413 294.76 162.402 296.263 161.183 297.438C158.002 300.505 153.7 301.129 149.83 302.7C147.941 303.343 146.226 304.565 144.855 306.245C143.568 308.001 142.949 310.613 143.757 312.738C144.172 313.624 144.636 314.476 145.145 315.289C147.427 319.649 145.908 325.305 146.248 330.432C146.674 336.834 154.604 347.219 159.981 348.734C168.663 351.179 163.647 335.459 166.521 331.256Z" fill="#2F2E41"/>
<path d="M154.495 611.94C155.043 616.614 155.745 621.305 155.558 626.019C155.295 632.602 153.308 638.943 152.941 645.518C152.667 650.429 153.301 655.393 152.73 660.267C152.365 663.388 151.513 666.397 150.986 669.485C150.15 674.517 150.174 679.698 151.055 684.719C151.936 689.74 153.656 694.496 156.112 698.704C156.473 699.424 156.986 700.018 157.6 700.426C158.189 700.687 158.819 700.786 159.444 700.718C165.644 700.567 171.828 699.896 177.949 698.709C178.398 698.687 178.822 698.463 179.138 698.082C179.276 697.83 179.364 697.543 179.396 697.244C180.531 690.274 177.942 683.284 177.284 676.226C176.581 668.69 178.095 661.139 179.597 653.771C180.279 650.137 181.13 646.551 182.147 643.031C182.873 640.662 183.75 638.357 184.379 635.949C185.271 632.165 185.814 628.277 185.998 624.352C186.435 618.16 186.667 611.953 186.693 605.732C186.841 599.837 186.431 593.941 185.469 588.156C184.088 580.832 181.26 574.031 178.458 567.312C176.959 567.741 175.552 568.54 174.327 569.657C170.715 572.452 166.944 574.941 163.042 577.106C160.419 578.562 155.306 579.595 153.641 582.627C152 585.618 153.059 591.719 153.185 595.017C153.4 600.679 153.837 606.319 154.495 611.94Z" fill="#2F2E41"/>
<path opacity="0.1" d="M154.495 611.94C155.043 616.614 155.745 621.305 155.558 626.019C155.295 632.602 153.308 638.943 152.941 645.518C152.667 650.429 153.301 655.393 152.73 660.267C152.365 663.388 151.513 666.397 150.986 669.485C150.15 674.517 150.174 679.698 151.055 684.719C151.936 689.74 153.656 694.496 156.112 698.704C156.473 699.424 156.986 700.018 157.6 700.426C158.189 700.687 158.819 700.786 159.444 700.718C165.644 700.567 171.828 699.896 177.949 698.709C178.398 698.687 178.822 698.463 179.138 698.082C179.276 697.83 179.364 697.543 179.396 697.244C180.531 690.274 177.942 683.284 177.284 676.226C176.581 668.69 178.095 661.139 179.597 653.771C180.279 650.137 181.13 646.551 182.147 643.031C182.873 640.662 183.75 638.357 184.379 635.949C185.271 632.165 185.814 628.277 185.998 624.352C186.435 618.16 186.667 611.953 186.693 605.732C186.841 599.837 186.431 593.941 185.469 588.156C184.088 580.832 181.26 574.031 178.458 567.312C176.959 567.741 175.552 568.54 174.327 569.657C170.715 572.452 166.944 574.941 163.042 577.106C160.419 578.562 155.306 579.595 153.641 582.627C152 585.618 153.059 591.719 153.185 595.017C153.4 600.679 153.837 606.319 154.495 611.94Z" fill="black"/>
<path d="M125.694 512.101C122.865 521.2 127.023 531.033 130.636 539.727C139.537 561.147 145.718 584.003 151.865 606.762C152.326 608.466 152.786 610.326 152.273 612.009C151.829 613.205 151.109 614.225 150.198 614.949C145.959 618.796 140.562 620.166 135.512 622.178C130.632 624.124 125.958 626.741 121.585 629.978C117.926 632.686 114.498 635.813 111.077 638.935L100.187 648.871C99.4823 649.441 98.8662 650.153 98.3671 650.976C97.3168 652.945 97.747 655.515 98.2699 657.765C99.6548 663.721 101.438 669.534 103.602 675.149C103.958 676.38 104.636 677.441 105.535 678.177C107.235 679.268 109.314 677.821 110.612 676.115C111.91 674.409 113.033 672.286 114.863 671.554C116.69 670.822 118.702 671.708 120.61 671.388C123.697 670.87 125.747 667.473 127.972 664.865C137.063 654.209 152.242 654.982 162.242 645.561C163.688 644.015 165.218 642.587 166.823 641.286C168.514 640.092 170.431 639.436 172.185 638.381C177.521 635.171 180.875 628.536 182.672 621.73C184.468 614.924 184.981 607.739 186.272 600.772C186.939 597.17 187.818 593.606 188.115 589.934C188.306 586.518 188.244 583.089 187.929 579.687L184.32 526.357C184.026 522.015 183.732 517.668 183.162 513.365C172.445 513.823 161.735 514.338 151.012 514.489C142.479 514.61 133.79 515.323 125.694 512.101Z" fill="#2F2E41"/>
<path d="M121.754 524.577C123.208 527.37 126.747 527.312 129.183 525.781C131.62 524.249 133.513 521.676 135.955 520.158C139.237 518.118 143.121 518.195 146.819 518.319C152.674 518.517 158.601 518.727 164.234 520.644C170.06 522.627 175.732 526.444 181.757 525.683C182.805 525.55 183.952 525.191 184.522 524.132C184.857 523.365 185.014 522.505 184.978 521.641L185.175 515.353C185.296 514.265 185.15 513.159 184.756 512.169C184.25 511.344 183.557 510.71 182.759 510.342C174.184 505.383 164.405 504.459 154.883 504.07C150.043 503.872 145.201 503.79 140.357 503.825C136.246 503.855 131.312 503.145 127.315 504.457C121.952 506.218 119.033 519.348 121.754 524.577Z" fill="#2F2E41"/>
<path d="M175.599 359.887C164.364 359.769 154.182 350.908 142.947 350.693C141.59 350.58 140.23 350.861 138.982 351.51C137.417 352.452 136.387 354.274 135.198 355.812C131.876 360.11 127.066 362.405 123.653 366.6C120.453 370.533 118.673 376.393 119.937 381.666C121.2 386.939 125.968 390.984 130.435 389.717C132.235 382.757 135.949 376.728 140.976 372.607C143.591 370.602 146.348 368.874 149.214 367.44C154.264 364.707 159.91 361.921 165.182 363.97C167.126 364.847 168.959 366.042 170.629 367.519L179.418 374.572C178.394 369.747 177.473 364.334 175.599 359.887Z" fill="#FFC107"/>
<path d="M129.141 385.051C127.649 387.275 129.798 390.497 129.469 393.32C129.251 395.195 127.959 396.627 127.421 398.408C126.864 400.253 127.159 402.297 126.948 404.241C126.736 405.656 126.422 407.046 126.01 408.396C125.064 412.429 124.403 416.55 124.035 420.716L122.069 438.261C121.727 440.902 121.52 443.565 121.447 446.235C121.546 448.231 121.434 450.234 121.114 452.196C120.679 454.114 119.714 455.791 119.066 457.621C118.417 459.45 118.116 461.663 118.993 463.351C116.058 466.271 115.185 472.006 117.237 475.855C117.628 476.454 117.934 477.126 118.142 477.844C118.255 478.848 118.117 479.869 117.744 480.778L115.755 487.108C115.246 488.729 115.085 491.196 116.5 491.565C115.328 493.02 114.415 494.743 113.816 496.631C113.525 497.579 113.438 498.599 113.563 499.597C113.688 500.595 114.021 501.54 114.531 502.345C115.025 502.863 115.445 503.473 115.776 504.151C115.971 505.096 115.921 506.09 115.632 507C115.335 508.382 115.278 509.823 115.464 511.233C115.65 512.643 116.076 513.992 116.715 515.198C117.378 516.388 118.316 517.321 119.415 517.884C120.514 518.447 121.727 518.615 122.905 518.368C126.883 517.296 130.457 515.604 134.468 516.483C143.104 518.376 151.768 520.277 160.132 523.468C169.678 527.109 178.921 532.448 188.898 533.569C189.554 533.73 190.237 533.603 190.822 533.212C191.33 532.636 191.646 531.86 191.711 531.027C192.739 525.269 193.767 519.512 194.795 513.754C196.037 507.372 196.984 500.913 197.629 494.406C197.98 490.206 198.08 485.983 198.18 481.764L198.975 448.183C199.347 443.234 198.795 438.248 197.357 433.585L192.786 416.151C190.177 406.202 184.193 397.379 182.062 387.269C180.714 380.87 179.718 374.003 176.101 369.016C170.946 361.906 162.026 360.8 154.218 362.022C150.691 362.575 147.134 363.528 144.083 365.713C140.555 368.24 137.957 372.22 135.442 376.109C133.37 379.315 131.261 381.891 129.141 385.051Z" fill="#FFC107"/>
<path d="M147.371 483.823C148.014 487.136 149.365 490.192 150.192 493.447C151.577 498.9 151.459 504.774 152.842 510.228C153.422 512.518 154.263 514.716 154.68 517.056C155.651 522.511 154.233 528.154 152.472 533.319C150.71 538.484 148.565 543.577 147.993 549.112C147.591 553.01 148.169 557.412 150.684 559.942C153.296 562.569 157.09 562.391 160.491 562.042C161.712 562.001 162.918 561.701 164.051 561.156C166.652 559.686 167.747 556.009 168.355 552.649C170.393 541.39 169.811 529.719 169.218 518.22L167.67 488.15C167.372 482.361 167.052 476.452 165.559 470.894C165.016 468.872 164.069 464.786 162.523 463.495C160.992 462.216 156.62 462.159 154.724 462.053C145.829 461.554 145.929 476.385 147.371 483.823Z" fill="#FBBEBE"/>
<path d="M157.225 372.798C155.409 371.661 153.12 372.151 151.364 373.416C149.669 374.803 148.184 376.526 146.974 378.509C143.048 384.234 138.893 390.802 139.475 398.169C139.694 400.931 140.579 403.545 141.179 406.225C143.811 417.978 140.901 430.407 141.235 442.566C141.427 449.592 142.707 456.502 143.982 463.365C144.242 464.765 144.658 466.387 145.792 466.858C146.644 467.213 147.564 466.757 148.408 466.374C151.549 464.988 154.923 464.525 158.246 465.025C161.568 465.525 164.741 466.974 167.496 469.249C169.603 467.906 168.813 463.66 168.341 460.864C166.938 452.557 168.843 443.987 171.156 435.975C173.469 427.964 176.237 419.962 176.62 411.5C177.054 401.912 174.393 392.553 171.767 383.478C171.194 381.497 170.568 379.419 169.239 378.051C168.102 377.04 166.798 376.329 165.414 375.963C162.625 374.978 159.802 374.409 157.225 372.798Z" fill="#2F2E41"/>
</g>
<defs>
<linearGradient id="paint0_linear" x1="353.288" y1="0" x2="353.288" y2="669.994" gradientUnits="userSpaceOnUse">
<stop stop-color="#FFC107"/>
<stop offset="1"/>
</linearGradient>
<linearGradient id="paint1_linear" x1="765.744" y1="406.292" x2="765.744" y2="609.137" gradientUnits="userSpaceOnUse">
<stop stop-color="#3F3D56"/>
<stop offset="1"/>
</linearGradient>
<clipPath id="clip0">
<rect width="828" height="751" fill="white"/>
</clipPath>
</defs>
</svg>
